<svg width="250" height="46" viewBox="0 0 250 46" fill="none" xmlns="http://www.w3.org/2000/svg">
<path d="M17.8236 0H108.215L93.2556 46H0L17.8236 0Z" fill="#EC2424"/>
<path d="M31.728 26.5488H26.5933V38H20.1479V6.71875H31.771C35.4663 6.71875 38.3166 7.54232 40.3218 9.18945C42.327 10.8366 43.3296 13.1641 43.3296 16.1719C43.3296 18.306 42.8641 20.0892 41.9331 21.5215C41.0164 22.9395 39.62 24.071 37.7437 24.916L44.5112 37.6992V38H37.5933L31.728 26.5488ZM26.5933 21.3281H31.7925C33.411 21.3281 34.6642 20.9199 35.5522 20.1035C36.4403 19.2728 36.8843 18.1341 36.8843 16.6875C36.8843 15.2122 36.4618 14.0521 35.6167 13.207C34.786 12.362 33.5041 11.9395 31.771 11.9395H26.5933V21.3281ZM58.5405 38.4297C55.1317 38.4297 52.353 37.3841 50.2046 35.293C48.0705 33.2018 47.0034 30.416 47.0034 26.9355V26.334C47.0034 23.9993 47.4546 21.9154 48.3569 20.082C49.2593 18.2344 50.534 16.8164 52.1812 15.8281C53.8426 14.8255 55.7332 14.3242 57.853 14.3242C61.0327 14.3242 63.5321 15.3268 65.3511 17.332C67.1844 19.3372 68.1011 22.1803 68.1011 25.8613V28.3965H53.2983C53.4989 29.9147 54.1004 31.1322 55.103 32.0488C56.12 32.9655 57.4019 33.4238 58.9487 33.4238C61.3407 33.4238 63.2098 32.5573 64.5562 30.8242L67.6069 34.2402C66.6759 35.5579 65.4155 36.5892 63.8257 37.334C62.2358 38.0645 60.4741 38.4297 58.5405 38.4297ZM57.8315 19.3516C56.5998 19.3516 55.5972 19.7669 54.8237 20.5977C54.0646 21.4284 53.5776 22.6172 53.3628 24.1641H61.9995V23.6699C61.9709 22.2949 61.5985 21.235 60.8823 20.4902C60.1662 19.7311 59.1493 19.3516 57.8315 19.3516ZM70.6792 26.2051C70.6792 22.5814 71.4884 19.6953 73.1069 17.5469C74.7397 15.3984 76.967 14.3242 79.7886 14.3242C82.0516 14.3242 83.9207 15.1693 85.396 16.8594V5H91.6265V38H86.019L85.7183 35.5293C84.1714 37.4629 82.1805 38.4297 79.7456 38.4297C77.0099 38.4297 74.8114 37.3555 73.1499 35.207C71.5028 33.0443 70.6792 30.0436 70.6792 26.2051ZM76.8882 26.6562C76.8882 28.8333 77.2677 30.502 78.0269 31.6621C78.786 32.8223 79.8888 33.4023 81.3354 33.4023C83.2547 33.4023 84.6082 32.5931 85.396 30.9746V21.8008C84.6226 20.1823 83.2834 19.373 81.3784 19.373C78.3849 19.373 76.8882 21.8008 76.8882 26.6562Z" fill="white"/>
<path d="M131.117 32.9727V38H115.369V32.9727H131.117ZM117.453 6.71875V38H111.008V6.71875H117.453ZM140.957 14.7539V38H134.748V14.7539H140.957ZM134.361 8.69531C134.361 7.79297 134.676 7.04818 135.307 6.46094C135.937 5.8737 136.782 5.58008 137.842 5.58008C138.887 5.58008 139.725 5.8737 140.355 6.46094C141 7.04818 141.322 7.79297 141.322 8.69531C141.322 9.59766 141 10.3424 140.355 10.9297C139.725 11.5169 138.887 11.8105 137.842 11.8105C136.782 11.8105 135.937 11.5169 135.307 10.9297C134.676 10.3424 134.361 9.59766 134.361 8.69531ZM145.082 26.6133V26.1621C145.082 24.4577 145.326 22.8893 145.812 21.457C146.299 20.0104 147.008 18.7572 147.939 17.6973C148.87 16.6374 150.016 15.8138 151.377 15.2266C152.738 14.625 154.299 14.3242 156.061 14.3242C157.822 14.3242 159.391 14.625 160.766 15.2266C162.141 15.8138 163.294 16.6374 164.225 17.6973C165.17 18.7572 165.886 20.0104 166.373 21.457C166.86 22.8893 167.104 24.4577 167.104 26.1621V26.6133C167.104 28.3034 166.86 29.8717 166.373 31.3184C165.886 32.7507 165.17 34.0039 164.225 35.0781C163.294 36.138 162.148 36.9616 160.787 37.5488C159.426 38.1361 157.865 38.4297 156.104 38.4297C154.342 38.4297 152.773 38.1361 151.398 37.5488C150.038 36.9616 148.885 36.138 147.939 35.0781C147.008 34.0039 146.299 32.7507 145.812 31.3184C145.326 29.8717 145.082 28.3034 145.082 26.6133ZM151.27 26.1621V26.6133C151.27 27.5872 151.355 28.4967 151.527 29.3418C151.699 30.1868 151.971 30.9316 152.344 31.5762C152.73 32.2064 153.232 32.7005 153.848 33.0586C154.464 33.4167 155.215 33.5957 156.104 33.5957C156.963 33.5957 157.701 33.4167 158.316 33.0586C158.932 32.7005 159.426 32.2064 159.799 31.5762C160.171 30.9316 160.443 30.1868 160.615 29.3418C160.801 28.4967 160.895 27.5872 160.895 26.6133V26.1621C160.895 25.2168 160.801 24.3288 160.615 23.498C160.443 22.653 160.164 21.9082 159.777 21.2637C159.405 20.6048 158.911 20.0892 158.295 19.7168C157.679 19.3444 156.934 19.1582 156.061 19.1582C155.187 19.1582 154.442 19.3444 153.826 19.7168C153.225 20.0892 152.73 20.6048 152.344 21.2637C151.971 21.9082 151.699 22.653 151.527 23.498C151.355 24.3288 151.27 25.2168 151.27 26.1621ZM176.965 19.7168V38H170.777V14.7539H176.578L176.965 19.7168ZM176.062 25.5605H174.387C174.387 23.8418 174.609 22.2949 175.053 20.9199C175.497 19.5306 176.12 18.349 176.922 17.375C177.724 16.3867 178.676 15.6348 179.779 15.1191C180.896 14.5892 182.143 14.3242 183.518 14.3242C184.606 14.3242 185.602 14.4818 186.504 14.7969C187.406 15.112 188.18 15.6133 188.824 16.3008C189.483 16.9883 189.984 17.8978 190.328 19.0293C190.686 20.1608 190.865 21.543 190.865 23.1758V38H184.635V23.1543C184.635 22.123 184.492 21.321 184.205 20.748C183.919 20.1751 183.496 19.7741 182.938 19.5449C182.393 19.3014 181.72 19.1797 180.918 19.1797C180.087 19.1797 179.364 19.3444 178.748 19.6738C178.146 20.0033 177.645 20.4616 177.244 21.0488C176.857 21.6217 176.564 22.2949 176.363 23.0684C176.163 23.8418 176.062 24.6725 176.062 25.5605Z" fill="white"/>
</svg>
