<svg width="1024" height="1024" viewBox="0 0 1024 1024" fill="none" xmlns="http://www.w3.org/2000/svg">
<path d="M116.8 240H557L484.15 757H30L116.8 240Z" fill="#EC2424"/>
<path d="M129.318 437.812H176.388C187.065 437.812 196.082 439.44 203.439 442.695C210.861 445.951 216.492 450.768 220.333 457.148C224.239 463.464 226.193 471.243 226.193 480.488C226.193 486.999 224.858 492.956 222.189 498.359C219.584 503.698 215.808 508.255 210.861 512.031C205.978 515.742 200.118 518.509 193.282 520.332L188.009 522.383H143.771L143.575 507.051H176.974C183.745 507.051 189.376 505.879 193.868 503.535C198.361 501.126 201.746 497.904 204.025 493.867C206.303 489.831 207.443 485.371 207.443 480.488C207.443 475.02 206.368 470.234 204.22 466.133C202.071 462.031 198.686 458.874 194.064 456.66C189.506 454.382 183.614 453.242 176.388 453.242H148.165V580H129.318V437.812ZM212.423 580L177.853 515.547L197.482 515.449L232.54 578.828V580H212.423ZM293.673 581.953C286.316 581.953 279.643 580.716 273.654 578.242C267.729 575.703 262.618 572.155 258.321 567.598C254.09 563.04 250.834 557.637 248.556 551.387C246.277 545.137 245.138 538.301 245.138 530.879V526.777C245.138 518.184 246.407 510.534 248.946 503.828C251.486 497.057 254.936 491.328 259.298 486.641C263.66 481.953 268.608 478.405 274.142 475.996C279.676 473.587 285.405 472.383 291.329 472.383C298.881 472.383 305.392 473.685 310.861 476.289C316.394 478.893 320.919 482.539 324.435 487.227C327.95 491.849 330.555 497.318 332.247 503.633C333.94 509.883 334.786 516.719 334.786 524.141V532.246H255.88V517.5H316.72V516.133C316.459 511.445 315.483 506.888 313.79 502.461C312.163 498.034 309.558 494.388 305.978 491.523C302.397 488.659 297.514 487.227 291.329 487.227C287.228 487.227 283.452 488.105 280.001 489.863C276.551 491.556 273.588 494.095 271.114 497.48C268.64 500.866 266.72 505 265.353 509.883C263.986 514.766 263.302 520.397 263.302 526.777V530.879C263.302 535.892 263.986 540.612 265.353 545.039C266.785 549.401 268.836 553.242 271.505 556.562C274.239 559.883 277.527 562.487 281.368 564.375C285.275 566.263 289.702 567.207 294.65 567.207C301.03 567.207 306.433 565.905 310.861 563.301C315.288 560.697 319.161 557.214 322.482 552.852L333.419 561.543C331.14 564.993 328.243 568.281 324.728 571.406C321.212 574.531 316.883 577.07 311.739 579.023C306.661 580.977 300.639 581.953 293.673 581.953ZM422.482 559.492V430H440.646V580H424.044L422.482 559.492ZM351.388 528.34V526.289C351.388 518.216 352.364 510.892 354.318 504.316C356.336 497.676 359.168 491.979 362.814 487.227C366.525 482.474 370.919 478.828 375.997 476.289C381.14 473.685 386.87 472.383 393.185 472.383C399.825 472.383 405.62 473.555 410.568 475.898C415.581 478.177 419.812 481.53 423.263 485.957C426.779 490.319 429.545 495.592 431.564 501.777C433.582 507.962 434.982 514.961 435.763 522.773V531.758C435.047 539.505 433.647 546.471 431.564 552.656C429.545 558.841 426.779 564.115 423.263 568.477C419.812 572.839 415.581 576.191 410.568 578.535C405.555 580.814 399.695 581.953 392.989 581.953C386.805 581.953 381.14 580.618 375.997 577.949C370.919 575.28 366.525 571.536 362.814 566.719C359.168 561.901 356.336 556.237 354.318 549.727C352.364 543.151 351.388 536.022 351.388 528.34ZM369.552 526.289V528.34C369.552 533.613 370.073 538.561 371.114 543.184C372.221 547.806 373.914 551.875 376.193 555.391C378.471 558.906 381.368 561.673 384.884 563.691C388.4 565.645 392.599 566.621 397.482 566.621C403.471 566.621 408.387 565.352 412.228 562.812C416.134 560.273 419.259 556.921 421.603 552.754C423.946 548.587 425.769 544.062 427.071 539.18V515.645C426.29 512.064 425.151 508.613 423.654 505.293C422.221 501.908 420.333 498.913 417.989 496.309C415.711 493.639 412.879 491.523 409.493 489.961C406.173 488.398 402.234 487.617 397.677 487.617C392.729 487.617 388.465 488.659 384.884 490.742C381.368 492.76 378.471 495.56 376.193 499.141C373.914 502.656 372.221 506.758 371.114 511.445C370.073 516.068 369.552 521.016 369.552 526.289Z" fill="white"/>
<path d="M674.734 564.668V580H603.641V564.668H674.734ZM607.352 437.812V580H588.504V437.812H607.352ZM713.211 474.336V580H695.047V474.336H713.211ZM693.68 446.309C693.68 443.379 694.559 440.905 696.316 438.887C698.139 436.868 700.809 435.859 704.324 435.859C707.775 435.859 710.411 436.868 712.234 438.887C714.122 440.905 715.066 443.379 715.066 446.309C715.066 449.108 714.122 451.517 712.234 453.535C710.411 455.488 707.775 456.465 704.324 456.465C700.809 456.465 698.139 455.488 696.316 453.535C694.559 451.517 693.68 449.108 693.68 446.309ZM737.43 528.34V526.094C737.43 518.477 738.536 511.413 740.75 504.902C742.964 498.327 746.154 492.63 750.32 487.812C754.487 482.93 759.533 479.154 765.457 476.484C771.382 473.75 778.022 472.383 785.379 472.383C792.801 472.383 799.474 473.75 805.398 476.484C811.388 479.154 816.466 482.93 820.633 487.812C824.865 492.63 828.087 498.327 830.301 504.902C832.514 511.413 833.621 518.477 833.621 526.094V528.34C833.621 535.957 832.514 543.021 830.301 549.531C828.087 556.042 824.865 561.738 820.633 566.621C816.466 571.439 811.421 575.215 805.496 577.949C799.637 580.618 792.996 581.953 785.574 581.953C778.152 581.953 771.479 580.618 765.555 577.949C759.63 575.215 754.552 571.439 750.32 566.621C746.154 561.738 742.964 556.042 740.75 549.531C738.536 543.021 737.43 535.957 737.43 528.34ZM755.496 526.094V528.34C755.496 533.613 756.115 538.594 757.352 543.281C758.589 547.904 760.444 552.005 762.918 555.586C765.457 559.167 768.615 561.999 772.391 564.082C776.167 566.1 780.561 567.109 785.574 567.109C790.522 567.109 794.852 566.1 798.562 564.082C802.339 561.999 805.464 559.167 807.938 555.586C810.411 552.005 812.267 547.904 813.504 543.281C814.806 538.594 815.457 533.613 815.457 528.34V526.094C815.457 520.885 814.806 515.97 813.504 511.348C812.267 506.66 810.379 502.526 807.84 498.945C805.366 495.299 802.241 492.435 798.465 490.352C794.754 488.268 790.392 487.227 785.379 487.227C780.431 487.227 776.069 488.268 772.293 490.352C768.582 492.435 765.457 495.299 762.918 498.945C760.444 502.526 758.589 506.66 757.352 511.348C756.115 515.97 755.496 520.885 755.496 526.094ZM874.344 496.895V580H856.277V474.336H873.367L874.344 496.895ZM870.047 523.164L862.527 522.871C862.592 515.645 863.667 508.971 865.75 502.852C867.833 496.667 870.763 491.296 874.539 486.738C878.315 482.181 882.807 478.665 888.016 476.191C893.289 473.652 899.116 472.383 905.496 472.383C910.704 472.383 915.392 473.099 919.559 474.531C923.725 475.898 927.273 478.112 930.203 481.172C933.198 484.232 935.477 488.203 937.039 493.086C938.602 497.904 939.383 503.796 939.383 510.762V580H921.219V510.566C921.219 505.033 920.405 500.605 918.777 497.285C917.15 493.9 914.773 491.458 911.648 489.961C908.523 488.398 904.682 487.617 900.125 487.617C895.633 487.617 891.531 488.561 887.82 490.449C884.174 492.337 881.017 494.941 878.348 498.262C875.743 501.582 873.693 505.391 872.195 509.688C870.763 513.919 870.047 518.411 870.047 523.164Z" fill="white"/>
</svg>
