<svg width="222" height="66" viewBox="0 0 222 66" fill="none" xmlns="http://www.w3.org/2000/svg">
<path d="M19.1059 0H116L99.9647 66H0L19.1059 0Z" fill="#EC2424"/>
<path d="M21.9609 16.875H33.2578C35.8203 16.875 37.9844 17.2656 39.75 18.0469C41.5312 18.8281 42.8828 19.9844 43.8047 21.5156C44.7422 23.0312 45.2109 24.8984 45.2109 27.1172C45.2109 28.6797 44.8906 30.1094 44.25 31.4062C43.625 32.6875 42.7188 33.7812 41.5312 34.6875C40.3594 35.5781 38.9531 36.2422 37.3125 36.6797L36.0469 37.1719H25.4297L25.3828 33.4922H33.3984C35.0234 33.4922 36.375 33.2109 37.4531 32.6484C38.5312 32.0703 39.3438 31.2969 39.8906 30.3281C40.4375 29.3594 40.7109 28.2891 40.7109 27.1172C40.7109 25.8047 40.4531 24.6562 39.9375 23.6719C39.4219 22.6875 38.6094 21.9297 37.5 21.3984C36.4062 20.8516 34.9922 20.5781 33.2578 20.5781H26.4844V51H21.9609V16.875ZM41.9062 51L33.6094 35.5312L38.3203 35.5078L46.7344 50.7188V51H41.9062ZM61.4062 51.4688C59.6406 51.4688 58.0391 51.1719 56.6016 50.5781C55.1797 49.9688 53.9531 49.1172 52.9219 48.0234C51.9062 46.9297 51.125 45.6328 50.5781 44.1328C50.0312 42.6328 49.7578 40.9922 49.7578 39.2109V38.2266C49.7578 36.1641 50.0625 34.3281 50.6719 32.7188C51.2812 31.0938 52.1094 29.7188 53.1562 28.5938C54.2031 27.4688 55.3906 26.6172 56.7188 26.0391C58.0469 25.4609 59.4219 25.1719 60.8438 25.1719C62.6562 25.1719 64.2188 25.4844 65.5312 26.1094C66.8594 26.7344 67.9453 27.6094 68.7891 28.7344C69.6328 29.8438 70.2578 31.1562 70.6641 32.6719C71.0703 34.1719 71.2734 35.8125 71.2734 37.5938V39.5391H52.3359V36H66.9375V35.6719C66.875 34.5469 66.6406 33.4531 66.2344 32.3906C65.8438 31.3281 65.2188 30.4531 64.3594 29.7656C63.5 29.0781 62.3281 28.7344 60.8438 28.7344C59.8594 28.7344 58.9531 28.9453 58.125 29.3672C57.2969 29.7734 56.5859 30.3828 55.9922 31.1953C55.3984 32.0078 54.9375 33 54.6094 34.1719C54.2812 35.3438 54.1172 36.6953 54.1172 38.2266V39.2109C54.1172 40.4141 54.2812 41.5469 54.6094 42.6094C54.9531 43.6562 55.4453 44.5781 56.0859 45.375C56.7422 46.1719 57.5312 46.7969 58.4531 47.25C59.3906 47.7031 60.4531 47.9297 61.6406 47.9297C63.1719 47.9297 64.4688 47.6172 65.5312 46.9922C66.5938 46.3672 67.5234 45.5312 68.3203 44.4844L70.9453 46.5703C70.3984 47.3984 69.7031 48.1875 68.8594 48.9375C68.0156 49.6875 66.9766 50.2969 65.7422 50.7656C64.5234 51.2344 63.0781 51.4688 61.4062 51.4688ZM92.3203 46.0781V15H96.6797V51H92.6953L92.3203 46.0781ZM75.2578 38.6016V38.1094C75.2578 36.1719 75.4922 34.4141 75.9609 32.8359C76.4453 31.2422 77.125 29.875 78 28.7344C78.8906 27.5938 79.9453 26.7188 81.1641 26.1094C82.3984 25.4844 83.7734 25.1719 85.2891 25.1719C86.8828 25.1719 88.2734 25.4531 89.4609 26.0156C90.6641 26.5625 91.6797 27.3672 92.5078 28.4297C93.3516 29.4766 94.0156 30.7422 94.5 32.2266C94.9844 33.7109 95.3203 35.3906 95.5078 37.2656V39.4219C95.3359 41.2812 95 42.9531 94.5 44.4375C94.0156 45.9219 93.3516 47.1875 92.5078 48.2344C91.6797 49.2812 90.6641 50.0859 89.4609 50.6484C88.2578 51.1953 86.8516 51.4688 85.2422 51.4688C83.7578 51.4688 82.3984 51.1484 81.1641 50.5078C79.9453 49.8672 78.8906 48.9688 78 47.8125C77.125 46.6562 76.4453 45.2969 75.9609 43.7344C75.4922 42.1562 75.2578 40.4453 75.2578 38.6016ZM79.6172 38.1094V38.6016C79.6172 39.8672 79.7422 41.0547 79.9922 42.1641C80.2578 43.2734 80.6641 44.25 81.2109 45.0938C81.7578 45.9375 82.4531 46.6016 83.2969 47.0859C84.1406 47.5547 85.1484 47.7891 86.3203 47.7891C87.7578 47.7891 88.9375 47.4844 89.8594 46.875C90.7969 46.2656 91.5469 45.4609 92.1094 44.4609C92.6719 43.4609 93.1094 42.375 93.4219 41.2031V35.5547C93.2344 34.6953 92.9609 33.8672 92.6016 33.0703C92.2578 32.2578 91.8047 31.5391 91.2422 30.9141C90.6953 30.2734 90.0156 29.7656 89.2031 29.3906C88.4062 29.0156 87.4609 28.8281 86.3672 28.8281C85.1797 28.8281 84.1562 29.0781 83.2969 29.5781C82.4531 30.0625 81.7578 30.7344 81.2109 31.5938C80.6641 32.4375 80.2578 33.4219 79.9922 34.5469C79.7422 35.6562 79.6172 36.8438 79.6172 38.1094Z" fill="white"/>
<path d="M146.656 47.3203V51H129.594V47.3203H146.656ZM130.484 16.875V51H125.961V16.875H130.484ZM155.891 25.6406V51H151.531V25.6406H155.891ZM151.203 18.9141C151.203 18.2109 151.414 17.6172 151.836 17.1328C152.273 16.6484 152.914 16.4062 153.758 16.4062C154.586 16.4062 155.219 16.6484 155.656 17.1328C156.109 17.6172 156.336 18.2109 156.336 18.9141C156.336 19.5859 156.109 20.1641 155.656 20.6484C155.219 21.1172 154.586 21.3516 153.758 21.3516C152.914 21.3516 152.273 21.1172 151.836 20.6484C151.414 20.1641 151.203 19.5859 151.203 18.9141ZM161.703 38.6016V38.0625C161.703 36.2344 161.969 34.5391 162.5 32.9766C163.031 31.3984 163.797 30.0312 164.797 28.875C165.797 27.7031 167.008 26.7969 168.43 26.1562C169.852 25.5 171.445 25.1719 173.211 25.1719C174.992 25.1719 176.594 25.5 178.016 26.1562C179.453 26.7969 180.672 27.7031 181.672 28.875C182.688 30.0312 183.461 31.3984 183.992 32.9766C184.523 34.5391 184.789 36.2344 184.789 38.0625V38.6016C184.789 40.4297 184.523 42.125 183.992 43.6875C183.461 45.25 182.688 46.6172 181.672 47.7891C180.672 48.9453 179.461 49.8516 178.039 50.5078C176.633 51.1484 175.039 51.4688 173.258 51.4688C171.477 51.4688 169.875 51.1484 168.453 50.5078C167.031 49.8516 165.812 48.9453 164.797 47.7891C163.797 46.6172 163.031 45.25 162.5 43.6875C161.969 42.125 161.703 40.4297 161.703 38.6016ZM166.039 38.0625V38.6016C166.039 39.8672 166.188 41.0625 166.484 42.1875C166.781 43.2969 167.227 44.2812 167.82 45.1406C168.43 46 169.188 46.6797 170.094 47.1797C171 47.6641 172.055 47.9062 173.258 47.9062C174.445 47.9062 175.484 47.6641 176.375 47.1797C177.281 46.6797 178.031 46 178.625 45.1406C179.219 44.2812 179.664 43.2969 179.961 42.1875C180.273 41.0625 180.43 39.8672 180.43 38.6016V38.0625C180.43 36.8125 180.273 35.6328 179.961 34.5234C179.664 33.3984 179.211 32.4062 178.602 31.5469C178.008 30.6719 177.258 29.9844 176.352 29.4844C175.461 28.9844 174.414 28.7344 173.211 28.7344C172.023 28.7344 170.977 28.9844 170.07 29.4844C169.18 29.9844 168.43 30.6719 167.82 31.5469C167.227 32.4062 166.781 33.3984 166.484 34.5234C166.188 35.6328 166.039 36.8125 166.039 38.0625ZM194.562 31.0547V51H190.227V25.6406H194.328L194.562 31.0547ZM193.531 37.3594L191.727 37.2891C191.742 35.5547 192 33.9531 192.5 32.4844C193 31 193.703 29.7109 194.609 28.6172C195.516 27.5234 196.594 26.6797 197.844 26.0859C199.109 25.4766 200.508 25.1719 202.039 25.1719C203.289 25.1719 204.414 25.3438 205.414 25.6875C206.414 26.0156 207.266 26.5469 207.969 27.2812C208.688 28.0156 209.234 28.9688 209.609 30.1406C209.984 31.2969 210.172 32.7109 210.172 34.3828V51H205.812V34.3359C205.812 33.0078 205.617 31.9453 205.227 31.1484C204.836 30.3359 204.266 29.75 203.516 29.3906C202.766 29.0156 201.844 28.8281 200.75 28.8281C199.672 28.8281 198.688 29.0547 197.797 29.5078C196.922 29.9609 196.164 30.5859 195.523 31.3828C194.898 32.1797 194.406 33.0938 194.047 34.125C193.703 35.1406 193.531 36.2188 193.531 37.3594Z" fill="white"/>
</svg>
